<svg xmlns="http://www.w3.org/2000/svg" version="1.1" viewBox="0 0 600 200" width="150mm" height="50mm">
   <defs>
      <marker id="timeline" viewBox="0 0 3 2" refX="0" refY="1" markerUnits="strokeWidth" markerWidth="7.5" markerHeight="5" orient="auto">
         <path d="M 0 0 L 3 1 L 0 2 z" fill="#000000"/>
      </marker>
      <marker id="arrowhead" viewBox="0 0 2 2" refX="0" refY="1" markerUnits="strokeWidth" markerWidth="5" markerHeight="5" orient="auto">
         <path d="M 0 0 L 2 1 L 0 2 z" fill="#808080"/>
      </marker>
   </defs>
   <!-- master -->
   <path d="M 10 30 L 575 30" fill="none" stroke="#000000" stroke-width="2" marker-end="url(#timeline)"/>
   <text x="10" y="25" font-family="sans" font-size="15" fill="#000000">master</text>
   <circle cx="100" cy="30" r="10" stroke="#000000" stroke-width="2" fill="#80e0e0"/>
   <circle cx="300" cy="30" r="10" stroke="#000000" stroke-width="2" fill="#80e0e0"/>
   <circle cx="550" cy="30" r="10" stroke="#000000" stroke-width="2" fill="#80e0e0"/>
   <text x="100" y="33.5" font-family="sans" font-size="10" style="text-anchor:middle;fill:#000000">0.1</text>
   <text x="300" y="33.5" font-family="sans" font-size="10" style="text-anchor:middle;fill:#000000">0.2</text>
   <text x="550" y="33.5" font-family="sans" font-size="10" style="text-anchor:middle;fill:#000000">0.3</text>

   <!-- dev -->
   <path d="M 10 130 L 575 130" fill="none" stroke="#000000" stroke-width="2" marker-end="url(#timeline)"/>
   <text x="10" y="125" font-family="sans" font-size="15" fill="#000000">dev</text>
   <circle cx="75" cy="130" r="10" stroke="#000000" stroke-width="2" fill="#e0e080"/>
   <circle cx="100" cy="130" r="10" stroke="#000000" stroke-width="2" fill="#e0e080"/>
   <circle cx="125" cy="130" r="10" stroke="#000000" stroke-width="2" fill="#e0e080"/>
   <circle cx="150" cy="130" r="10" stroke="#000000" stroke-width="2" fill="#e0e080"/>
   <circle cx="175" cy="130" r="10" stroke="#000000" stroke-width="2" fill="#e0e080"/>
   <circle cx="200" cy="130" r="10" stroke="#000000" stroke-width="2" fill="#e0e080"/>
   <circle cx="225" cy="130" r="10" stroke="#000000" stroke-width="2" fill="#e0e080"/>
   <circle cx="250" cy="130" r="10" stroke="#000000" stroke-width="2" fill="#e0e080"/>
   <circle cx="275" cy="130" r="10" stroke="#000000" stroke-width="2" fill="#e0e080"/>
   <circle cx="300" cy="130" r="10" stroke="#000000" stroke-width="2" fill="#e0e080"/>
   <circle cx="325" cy="130" r="10" stroke="#000000" stroke-width="2" fill="#e0e080"/>
   <circle cx="350" cy="130" r="10" stroke="#000000" stroke-width="2" fill="#e0e080"/>
   <circle cx="375" cy="130" r="10" stroke="#000000" stroke-width="2" fill="#e0e080"/>
   <circle cx="400" cy="130" r="10" stroke="#000000" stroke-width="2" fill="#e0e080"/>
   <circle cx="425" cy="130" r="10" stroke="#000000" stroke-width="2" fill="#e0e080"/>
   <circle cx="450" cy="130" r="10" stroke="#000000" stroke-width="2" fill="#e0e080"/>
   <circle cx="475" cy="130" r="10" stroke="#000000" stroke-width="2" fill="#e0e080"/>
   <circle cx="500" cy="130" r="10" stroke="#000000" stroke-width="2" fill="#e0e080"/>
   <circle cx="525" cy="130" r="10" stroke="#000000" stroke-width="2" fill="#e0e080"/>
   <circle cx="550" cy="130" r="10" stroke="#000000" stroke-width="2" fill="#e0e080"/>

   <!-- bugfix -->
   <path d="M 105 40 L 125 80 L 250 80 L 285 44" fill="none" stroke="#808080" stroke-width="2" marker-end="url(#arrowhead)"/>
   <path d="M 250 80 L 267.5 111" fill="none" stroke="#808080" stroke-width="2" marker-end="url(#arrowhead)"/>
   <text x="125" y="75" font-family="sans" font-size="15" fill="#808080">bugfix</text>
   <circle cx="200" cy="80" r="10" stroke="#000000" stroke-width="2" fill="#e08080"/>
   <circle cx="225" cy="80" r="10" stroke="#000000" stroke-width="2" fill="#e08080"/>

   <!-- release -->
   <path d="M 328 120 L 350 80 L 500 80 L 535 44" fill="none" stroke="#808080" stroke-width="2" marker-end="url(#arrowhead)"/>
   <path d="M 500 80 L 517.5 111" fill="none" stroke="#808080" stroke-width="2" marker-end="url(#arrowhead)"/>
   <text x="350" y="75" font-family="sans" font-size="15" fill="#808080">release</text>
   <circle cx="425" cy="80" r="10" stroke="#000000" stroke-width="2" fill="#80e080"/>
   <circle cx="450" cy="80" r="10" stroke="#000000" stroke-width="2" fill="#80e080"/>
   <circle cx="475" cy="80" r="10" stroke="#000000" stroke-width="2" fill="#80e080"/>

   <!-- feature -->
   <path d="M 205 140 L 225 180 L 450 180 L 485 144" fill="none" stroke="#808080" stroke-width="2" marker-end="url(#arrowhead)"/>
   <text x="225" y="175" font-family="sans" font-size="15" fill="#808080">feature</text>
   <circle cx="300" cy="180" r="10" stroke="#000000" stroke-width="2" fill="#8080e0"/>
   <circle cx="325" cy="180" r="10" stroke="#000000" stroke-width="2" fill="#8080e0"/>
   <circle cx="350" cy="180" r="10" stroke="#000000" stroke-width="2" fill="#8080e0"/>
   <circle cx="375" cy="180" r="10" stroke="#000000" stroke-width="2" fill="#8080e0"/>
   <circle cx="400" cy="180" r="10" stroke="#000000" stroke-width="2" fill="#8080e0"/>
   <circle cx="425" cy="180" r="10" stroke="#000000" stroke-width="2" fill="#8080e0"/>
</svg>
